<mxfile host="app.diagrams.net" modified="2023-09-19T14:01:58.159Z" agent="Mozilla/5.0 (Macintosh; Intel Mac OS X 10_15_7) AppleWebKit/605.1.15 (KHTML, like Gecko) Version/16.6 Safari/605.1.15" etag="CjHHbavq0yHgpmNJzKDA" version="21.7.5" type="google">
  <diagram name="Page-1" id="mwG1_WEmA-LWEz-mJTqM">
    <mxGraphModel grid="1" page="1" gridSize="10" guides="1" tooltips="1" connect="1" arrows="1" fold="1" pageScale="1" pageWidth="827" pageHeight="1169" math="0" shadow="0">
      <root>
        <mxCell id="0" />
        <mxCell id="1" parent="0" />
        <mxCell id="2QPjshsw38jV6scYMA-w-3" style="edgeStyle=orthogonalEdgeStyle;rounded=0;orthogonalLoop=1;jettySize=auto;html=1;exitX=0.5;exitY=1;exitDx=0;exitDy=0;entryX=0.5;entryY=0;entryDx=0;entryDy=0;" edge="1" parent="1" source="2QPjshsw38jV6scYMA-w-1" target="2QPjshsw38jV6scYMA-w-2">
          <mxGeometry relative="1" as="geometry" />
        </mxCell>
        <mxCell id="2QPjshsw38jV6scYMA-w-1" value="1. welcome" style="rounded=1;whiteSpace=wrap;html=1;" vertex="1" parent="1">
          <mxGeometry x="340" y="-130" width="120" height="50" as="geometry" />
        </mxCell>
        <mxCell id="2QPjshsw38jV6scYMA-w-146" style="edgeStyle=orthogonalEdgeStyle;rounded=0;orthogonalLoop=1;jettySize=auto;html=1;exitX=0.5;exitY=1;exitDx=0;exitDy=0;entryX=0.5;entryY=0;entryDx=0;entryDy=0;" edge="1" parent="1" source="2QPjshsw38jV6scYMA-w-2" target="2QPjshsw38jV6scYMA-w-143">
          <mxGeometry relative="1" as="geometry" />
        </mxCell>
        <mxCell id="2QPjshsw38jV6scYMA-w-2" value="answer" style="ellipse;whiteSpace=wrap;html=1;" vertex="1" parent="1">
          <mxGeometry x="340" y="-20" width="120" height="80" as="geometry" />
        </mxCell>
        <mxCell id="2QPjshsw38jV6scYMA-w-14" style="edgeStyle=orthogonalEdgeStyle;rounded=0;orthogonalLoop=1;jettySize=auto;html=1;exitX=1;exitY=0.5;exitDx=0;exitDy=0;" edge="1" parent="1" source="2QPjshsw38jV6scYMA-w-5" target="2QPjshsw38jV6scYMA-w-12">
          <mxGeometry relative="1" as="geometry" />
        </mxCell>
        <mxCell id="2QPjshsw38jV6scYMA-w-111" style="edgeStyle=orthogonalEdgeStyle;rounded=0;orthogonalLoop=1;jettySize=auto;html=1;exitX=0;exitY=0;exitDx=0;exitDy=0;" edge="1" parent="1" source="2QPjshsw38jV6scYMA-w-5" target="2QPjshsw38jV6scYMA-w-110">
          <mxGeometry relative="1" as="geometry" />
        </mxCell>
        <mxCell id="2QPjshsw38jV6scYMA-w-5" value="price range expressed?" style="rhombus;whiteSpace=wrap;html=1;" vertex="1" parent="1">
          <mxGeometry x="344.93" y="320" width="110" height="100" as="geometry" />
        </mxCell>
        <mxCell id="2QPjshsw38jV6scYMA-w-131" style="edgeStyle=orthogonalEdgeStyle;rounded=0;orthogonalLoop=1;jettySize=auto;html=1;exitX=1;exitY=0.5;exitDx=0;exitDy=0;entryX=0.5;entryY=0;entryDx=0;entryDy=0;" edge="1" parent="1" source="2QPjshsw38jV6scYMA-w-12" target="2QPjshsw38jV6scYMA-w-22">
          <mxGeometry relative="1" as="geometry" />
        </mxCell>
        <mxCell id="2QPjshsw38jV6scYMA-w-12" value="2. ask price range" style="rounded=1;whiteSpace=wrap;html=1;" vertex="1" parent="1">
          <mxGeometry x="429.93" y="440" width="120" height="60" as="geometry" />
        </mxCell>
        <mxCell id="2QPjshsw38jV6scYMA-w-15" value="no" style="text;html=1;align=center;verticalAlign=middle;resizable=0;points=[];autosize=1;strokeColor=none;fillColor=none;" vertex="1" parent="1">
          <mxGeometry x="489.93" y="400" width="40" height="30" as="geometry" />
        </mxCell>
        <mxCell id="2QPjshsw38jV6scYMA-w-26" style="edgeStyle=orthogonalEdgeStyle;rounded=0;orthogonalLoop=1;jettySize=auto;html=1;exitX=0.5;exitY=1;exitDx=0;exitDy=0;entryX=0.5;entryY=0;entryDx=0;entryDy=0;" edge="1" parent="1" source="2QPjshsw38jV6scYMA-w-19" target="2QPjshsw38jV6scYMA-w-25">
          <mxGeometry relative="1" as="geometry" />
        </mxCell>
        <mxCell id="2QPjshsw38jV6scYMA-w-19" value="3. ask area" style="rounded=1;whiteSpace=wrap;html=1;" vertex="1" parent="1">
          <mxGeometry x="84.93" y="450" width="120" height="60" as="geometry" />
        </mxCell>
        <mxCell id="2QPjshsw38jV6scYMA-w-135" style="edgeStyle=orthogonalEdgeStyle;rounded=0;orthogonalLoop=1;jettySize=auto;html=1;exitX=1;exitY=0.5;exitDx=0;exitDy=0;entryX=1;entryY=0;entryDx=0;entryDy=0;" edge="1" parent="1" source="2QPjshsw38jV6scYMA-w-22" target="2QPjshsw38jV6scYMA-w-5">
          <mxGeometry relative="1" as="geometry">
            <Array as="points">
              <mxPoint x="719.93" y="529" />
              <mxPoint x="719.93" y="345" />
            </Array>
          </mxGeometry>
        </mxCell>
        <mxCell id="2QPjshsw38jV6scYMA-w-22" value="reply price range" style="ellipse;whiteSpace=wrap;html=1;" vertex="1" parent="1">
          <mxGeometry x="579.93" y="489" width="120" height="80" as="geometry" />
        </mxCell>
        <mxCell id="2QPjshsw38jV6scYMA-w-121" style="edgeStyle=orthogonalEdgeStyle;rounded=0;orthogonalLoop=1;jettySize=auto;html=1;exitX=0;exitY=0.5;exitDx=0;exitDy=0;entryX=0.5;entryY=0;entryDx=0;entryDy=0;" edge="1" parent="1" source="2QPjshsw38jV6scYMA-w-25" target="2QPjshsw38jV6scYMA-w-110">
          <mxGeometry relative="1" as="geometry">
            <Array as="points">
              <mxPoint x="-20.07" y="630" />
              <mxPoint x="-20.07" y="240" />
              <mxPoint x="204.93" y="240" />
            </Array>
          </mxGeometry>
        </mxCell>
        <mxCell id="2QPjshsw38jV6scYMA-w-25" value="reply area" style="ellipse;whiteSpace=wrap;html=1;" vertex="1" parent="1">
          <mxGeometry x="84.93" y="600" width="120" height="80" as="geometry" />
        </mxCell>
        <mxCell id="2QPjshsw38jV6scYMA-w-125" style="edgeStyle=orthogonalEdgeStyle;rounded=0;orthogonalLoop=1;jettySize=auto;html=1;exitX=0;exitY=0.5;exitDx=0;exitDy=0;entryX=1;entryY=0.5;entryDx=0;entryDy=0;" edge="1" parent="1" source="2QPjshsw38jV6scYMA-w-32" target="2QPjshsw38jV6scYMA-w-33">
          <mxGeometry relative="1" as="geometry" />
        </mxCell>
        <mxCell id="2QPjshsw38jV6scYMA-w-32" value="4. ask food" style="rounded=1;whiteSpace=wrap;html=1;" vertex="1" parent="1">
          <mxGeometry x="329.93" y="745" width="120" height="60" as="geometry" />
        </mxCell>
        <mxCell id="2QPjshsw38jV6scYMA-w-130" style="edgeStyle=orthogonalEdgeStyle;rounded=0;orthogonalLoop=1;jettySize=auto;html=1;exitX=0.5;exitY=0;exitDx=0;exitDy=0;entryX=0;entryY=0.5;entryDx=0;entryDy=0;" edge="1" parent="1" source="2QPjshsw38jV6scYMA-w-33" target="2QPjshsw38jV6scYMA-w-117">
          <mxGeometry relative="1" as="geometry" />
        </mxCell>
        <mxCell id="2QPjshsw38jV6scYMA-w-33" value="reply food" style="ellipse;whiteSpace=wrap;html=1;" vertex="1" parent="1">
          <mxGeometry x="174.93" y="735" width="120" height="80" as="geometry" />
        </mxCell>
        <mxCell id="2QPjshsw38jV6scYMA-w-45" style="edgeStyle=orthogonalEdgeStyle;rounded=0;orthogonalLoop=1;jettySize=auto;html=1;exitX=0;exitY=0.5;exitDx=0;exitDy=0;entryX=1;entryY=0.5;entryDx=0;entryDy=0;" edge="1" parent="1" source="2QPjshsw38jV6scYMA-w-42">
          <mxGeometry relative="1" as="geometry">
            <mxPoint x="700" y="1300" as="sourcePoint" />
            <mxPoint x="70" y="1180" as="targetPoint" />
          </mxGeometry>
        </mxCell>
        <mxCell id="2QPjshsw38jV6scYMA-w-42" value="5. suggest restaurant" style="rounded=1;whiteSpace=wrap;html=1;arcSize=22;" vertex="1" parent="1">
          <mxGeometry x="220" y="1150" width="120" height="60" as="geometry" />
        </mxCell>
        <mxCell id="2QPjshsw38jV6scYMA-w-137" style="edgeStyle=orthogonalEdgeStyle;rounded=0;orthogonalLoop=1;jettySize=auto;html=1;exitX=0.5;exitY=1;exitDx=0;exitDy=0;entryX=0.5;entryY=0;entryDx=0;entryDy=0;" edge="1" parent="1" source="2QPjshsw38jV6scYMA-w-44" target="2QPjshsw38jV6scYMA-w-50">
          <mxGeometry relative="1" as="geometry" />
        </mxCell>
        <mxCell id="2QPjshsw38jV6scYMA-w-44" value="reply suggestion" style="ellipse;whiteSpace=wrap;html=1;" vertex="1" parent="1">
          <mxGeometry x="-50" y="1140" width="120" height="80" as="geometry" />
        </mxCell>
        <mxCell id="2QPjshsw38jV6scYMA-w-58" style="edgeStyle=orthogonalEdgeStyle;rounded=0;orthogonalLoop=1;jettySize=auto;html=1;exitX=0;exitY=0.5;exitDx=0;exitDy=0;entryX=0;entryY=0.5;entryDx=0;entryDy=0;" edge="1" parent="1" source="2QPjshsw38jV6scYMA-w-46" target="2QPjshsw38jV6scYMA-w-77">
          <mxGeometry relative="1" as="geometry" />
        </mxCell>
        <mxCell id="2QPjshsw38jV6scYMA-w-46" value="6. confirm" style="rounded=1;whiteSpace=wrap;html=1;" vertex="1" parent="1">
          <mxGeometry x="-50" y="1310" width="120" height="60" as="geometry" />
        </mxCell>
        <mxCell id="2QPjshsw38jV6scYMA-w-56" style="edgeStyle=orthogonalEdgeStyle;rounded=0;orthogonalLoop=1;jettySize=auto;html=1;exitX=1;exitY=0.5;exitDx=0;exitDy=0;entryX=0.5;entryY=1;entryDx=0;entryDy=0;" edge="1" parent="1" source="2QPjshsw38jV6scYMA-w-47" target="2QPjshsw38jV6scYMA-w-42">
          <mxGeometry relative="1" as="geometry">
            <mxPoint x="760" y="1350" as="targetPoint" />
            <Array as="points">
              <mxPoint x="640" y="1420" />
              <mxPoint x="640" y="1240" />
              <mxPoint x="280" y="1240" />
            </Array>
          </mxGeometry>
        </mxCell>
        <mxCell id="2QPjshsw38jV6scYMA-w-47" value="7. deny" style="rounded=1;whiteSpace=wrap;html=1;" vertex="1" parent="1">
          <mxGeometry x="479.93" y="1390" width="120" height="60" as="geometry" />
        </mxCell>
        <mxCell id="2QPjshsw38jV6scYMA-w-52" style="edgeStyle=orthogonalEdgeStyle;rounded=0;orthogonalLoop=1;jettySize=auto;html=1;exitX=0;exitY=0.5;exitDx=0;exitDy=0;entryX=1;entryY=0.5;entryDx=0;entryDy=0;" edge="1" parent="1" source="2QPjshsw38jV6scYMA-w-50" target="2QPjshsw38jV6scYMA-w-46">
          <mxGeometry relative="1" as="geometry" />
        </mxCell>
        <mxCell id="2QPjshsw38jV6scYMA-w-138" style="edgeStyle=orthogonalEdgeStyle;rounded=0;orthogonalLoop=1;jettySize=auto;html=1;exitX=0.5;exitY=1;exitDx=0;exitDy=0;entryX=0;entryY=0.5;entryDx=0;entryDy=0;" edge="1" parent="1" source="2QPjshsw38jV6scYMA-w-50" target="2QPjshsw38jV6scYMA-w-47">
          <mxGeometry relative="1" as="geometry" />
        </mxCell>
        <mxCell id="2QPjshsw38jV6scYMA-w-50" value="confirmation expressed?" style="rhombus;whiteSpace=wrap;html=1;" vertex="1" parent="1">
          <mxGeometry x="309.93" y="1295" width="90" height="90" as="geometry" />
        </mxCell>
        <mxCell id="2QPjshsw38jV6scYMA-w-64" style="edgeStyle=orthogonalEdgeStyle;rounded=0;orthogonalLoop=1;jettySize=auto;html=1;exitX=0;exitY=0.5;exitDx=0;exitDy=0;entryX=1;entryY=0.5;entryDx=0;entryDy=0;" edge="1" parent="1" source="2QPjshsw38jV6scYMA-w-57" target="2QPjshsw38jV6scYMA-w-63">
          <mxGeometry relative="1" as="geometry" />
        </mxCell>
        <mxCell id="2QPjshsw38jV6scYMA-w-66" style="edgeStyle=orthogonalEdgeStyle;rounded=0;orthogonalLoop=1;jettySize=auto;html=1;exitX=0.5;exitY=1;exitDx=0;exitDy=0;entryX=0.5;entryY=0;entryDx=0;entryDy=0;" edge="1" parent="1" source="2QPjshsw38jV6scYMA-w-57" target="2QPjshsw38jV6scYMA-w-65">
          <mxGeometry relative="1" as="geometry" />
        </mxCell>
        <mxCell id="2QPjshsw38jV6scYMA-w-57" value="phone request expressed?" style="rhombus;whiteSpace=wrap;html=1;" vertex="1" parent="1">
          <mxGeometry x="220" y="1520" width="90" height="80" as="geometry" />
        </mxCell>
        <mxCell id="2QPjshsw38jV6scYMA-w-88" style="edgeStyle=orthogonalEdgeStyle;rounded=0;orthogonalLoop=1;jettySize=auto;html=1;exitX=0.5;exitY=1;exitDx=0;exitDy=0;entryX=0.5;entryY=0;entryDx=0;entryDy=0;" edge="1" parent="1" source="2QPjshsw38jV6scYMA-w-63" target="2QPjshsw38jV6scYMA-w-87">
          <mxGeometry relative="1" as="geometry" />
        </mxCell>
        <mxCell id="2QPjshsw38jV6scYMA-w-63" value="8. give phone" style="rounded=1;whiteSpace=wrap;html=1;" vertex="1" parent="1">
          <mxGeometry x="-20" y="1530" width="120" height="60" as="geometry" />
        </mxCell>
        <mxCell id="2QPjshsw38jV6scYMA-w-68" style="edgeStyle=orthogonalEdgeStyle;rounded=0;orthogonalLoop=1;jettySize=auto;html=1;exitX=0.5;exitY=1;exitDx=0;exitDy=0;entryX=0.5;entryY=0;entryDx=0;entryDy=0;" edge="1" parent="1" source="2QPjshsw38jV6scYMA-w-65" target="2QPjshsw38jV6scYMA-w-67">
          <mxGeometry relative="1" as="geometry">
            <mxPoint x="265" y="1820" as="targetPoint" />
          </mxGeometry>
        </mxCell>
        <mxCell id="2QPjshsw38jV6scYMA-w-71" style="edgeStyle=orthogonalEdgeStyle;rounded=0;orthogonalLoop=1;jettySize=auto;html=1;exitX=0;exitY=0.5;exitDx=0;exitDy=0;entryX=1;entryY=0.5;entryDx=0;entryDy=0;" edge="1" parent="1" source="2QPjshsw38jV6scYMA-w-65" target="2QPjshsw38jV6scYMA-w-69">
          <mxGeometry relative="1" as="geometry" />
        </mxCell>
        <mxCell id="2QPjshsw38jV6scYMA-w-65" value="address request expressed?" style="rhombus;whiteSpace=wrap;html=1;" vertex="1" parent="1">
          <mxGeometry x="225" y="1700" width="80" height="80" as="geometry" />
        </mxCell>
        <mxCell id="2QPjshsw38jV6scYMA-w-72" style="edgeStyle=orthogonalEdgeStyle;rounded=0;orthogonalLoop=1;jettySize=auto;html=1;exitX=0;exitY=0.5;exitDx=0;exitDy=0;entryX=1;entryY=0.5;entryDx=0;entryDy=0;" edge="1" parent="1" source="2QPjshsw38jV6scYMA-w-67" target="2QPjshsw38jV6scYMA-w-70">
          <mxGeometry relative="1" as="geometry" />
        </mxCell>
        <mxCell id="2QPjshsw38jV6scYMA-w-73" style="edgeStyle=orthogonalEdgeStyle;rounded=0;orthogonalLoop=1;jettySize=auto;html=1;exitX=0.5;exitY=1;exitDx=0;exitDy=0;" edge="1" parent="1" source="2QPjshsw38jV6scYMA-w-67">
          <mxGeometry relative="1" as="geometry">
            <mxPoint x="265" y="2060" as="targetPoint" />
          </mxGeometry>
        </mxCell>
        <mxCell id="2QPjshsw38jV6scYMA-w-67" value="postcode request expressed?" style="rhombus;whiteSpace=wrap;html=1;" vertex="1" parent="1">
          <mxGeometry x="225" y="1870" width="80" height="80" as="geometry" />
        </mxCell>
        <mxCell id="2QPjshsw38jV6scYMA-w-92" style="edgeStyle=orthogonalEdgeStyle;rounded=0;orthogonalLoop=1;jettySize=auto;html=1;exitX=0.5;exitY=1;exitDx=0;exitDy=0;entryX=0.5;entryY=0;entryDx=0;entryDy=0;" edge="1" parent="1" source="2QPjshsw38jV6scYMA-w-69" target="2QPjshsw38jV6scYMA-w-91">
          <mxGeometry relative="1" as="geometry" />
        </mxCell>
        <mxCell id="2QPjshsw38jV6scYMA-w-69" value="9. give address" style="rounded=1;whiteSpace=wrap;html=1;" vertex="1" parent="1">
          <mxGeometry x="-20" y="1710" width="120" height="60" as="geometry" />
        </mxCell>
        <mxCell id="2QPjshsw38jV6scYMA-w-70" value="10. give postcode" style="rounded=1;whiteSpace=wrap;html=1;" vertex="1" parent="1">
          <mxGeometry x="-20" y="1880" width="120" height="60" as="geometry" />
        </mxCell>
        <mxCell id="2QPjshsw38jV6scYMA-w-75" value="11. goodbye" style="rounded=1;whiteSpace=wrap;html=1;" vertex="1" parent="1">
          <mxGeometry x="205" y="2060" width="120" height="60" as="geometry" />
        </mxCell>
        <mxCell id="2QPjshsw38jV6scYMA-w-136" style="edgeStyle=orthogonalEdgeStyle;rounded=0;orthogonalLoop=1;jettySize=auto;html=1;exitX=0.5;exitY=1;exitDx=0;exitDy=0;entryX=0.5;entryY=0;entryDx=0;entryDy=0;" edge="1" parent="1" source="2QPjshsw38jV6scYMA-w-77" target="2QPjshsw38jV6scYMA-w-57">
          <mxGeometry relative="1" as="geometry" />
        </mxCell>
        <mxCell id="2QPjshsw38jV6scYMA-w-77" value="reply confirmation" style="ellipse;whiteSpace=wrap;html=1;" vertex="1" parent="1">
          <mxGeometry x="155" y="1380" width="120" height="80" as="geometry" />
        </mxCell>
        <mxCell id="2QPjshsw38jV6scYMA-w-90" style="edgeStyle=orthogonalEdgeStyle;rounded=0;orthogonalLoop=1;jettySize=auto;html=1;exitX=1;exitY=0;exitDx=0;exitDy=0;entryX=0;entryY=1;entryDx=0;entryDy=0;" edge="1" parent="1" source="2QPjshsw38jV6scYMA-w-87" target="2QPjshsw38jV6scYMA-w-57">
          <mxGeometry relative="1" as="geometry" />
        </mxCell>
        <mxCell id="2QPjshsw38jV6scYMA-w-87" value="reply phone" style="ellipse;whiteSpace=wrap;html=1;" vertex="1" parent="1">
          <mxGeometry y="1640" width="80" height="50" as="geometry" />
        </mxCell>
        <mxCell id="2QPjshsw38jV6scYMA-w-93" style="edgeStyle=orthogonalEdgeStyle;rounded=0;orthogonalLoop=1;jettySize=auto;html=1;exitX=1;exitY=0.5;exitDx=0;exitDy=0;entryX=0;entryY=1;entryDx=0;entryDy=0;" edge="1" parent="1" source="2QPjshsw38jV6scYMA-w-91" target="2QPjshsw38jV6scYMA-w-65">
          <mxGeometry relative="1" as="geometry" />
        </mxCell>
        <mxCell id="2QPjshsw38jV6scYMA-w-91" value="reply address" style="ellipse;whiteSpace=wrap;html=1;" vertex="1" parent="1">
          <mxGeometry x="2.5" y="1810" width="75" height="40" as="geometry" />
        </mxCell>
        <mxCell id="2QPjshsw38jV6scYMA-w-95" style="edgeStyle=orthogonalEdgeStyle;rounded=0;orthogonalLoop=1;jettySize=auto;html=1;entryX=0.5;entryY=0;entryDx=0;entryDy=0;exitX=0.5;exitY=1;exitDx=0;exitDy=0;" edge="1" parent="1" source="2QPjshsw38jV6scYMA-w-70" target="2QPjshsw38jV6scYMA-w-97">
          <mxGeometry relative="1" as="geometry">
            <mxPoint x="30" y="1950" as="sourcePoint" />
          </mxGeometry>
        </mxCell>
        <mxCell id="2QPjshsw38jV6scYMA-w-96" style="edgeStyle=orthogonalEdgeStyle;rounded=0;orthogonalLoop=1;jettySize=auto;html=1;exitX=1;exitY=0.5;exitDx=0;exitDy=0;entryX=0;entryY=1;entryDx=0;entryDy=0;" edge="1" parent="1" source="2QPjshsw38jV6scYMA-w-97" target="2QPjshsw38jV6scYMA-w-67">
          <mxGeometry relative="1" as="geometry">
            <mxPoint x="255" y="1770" as="targetPoint" />
          </mxGeometry>
        </mxCell>
        <mxCell id="2QPjshsw38jV6scYMA-w-97" value="reply postcode" style="ellipse;whiteSpace=wrap;html=1;" vertex="1" parent="1">
          <mxGeometry y="2000" width="80" height="50" as="geometry" />
        </mxCell>
        <mxCell id="2QPjshsw38jV6scYMA-w-107" style="edgeStyle=orthogonalEdgeStyle;rounded=0;orthogonalLoop=1;jettySize=auto;html=1;exitX=0.5;exitY=1;exitDx=0;exitDy=0;entryX=0.5;entryY=0;entryDx=0;entryDy=0;" edge="1" parent="1" source="2QPjshsw38jV6scYMA-w-106" target="2QPjshsw38jV6scYMA-w-42">
          <mxGeometry relative="1" as="geometry" />
        </mxCell>
        <mxCell id="2QPjshsw38jV6scYMA-w-106" value="combo exists?" style="rhombus;whiteSpace=wrap;html=1;" vertex="1" parent="1">
          <mxGeometry x="340" y="825" width="100" height="100" as="geometry" />
        </mxCell>
        <mxCell id="2QPjshsw38jV6scYMA-w-113" style="edgeStyle=orthogonalEdgeStyle;rounded=0;orthogonalLoop=1;jettySize=auto;html=1;exitX=0;exitY=0.5;exitDx=0;exitDy=0;entryX=0.391;entryY=-0.052;entryDx=0;entryDy=0;entryPerimeter=0;" edge="1" parent="1" source="2QPjshsw38jV6scYMA-w-110" target="2QPjshsw38jV6scYMA-w-19">
          <mxGeometry relative="1" as="geometry" />
        </mxCell>
        <mxCell id="2QPjshsw38jV6scYMA-w-118" style="edgeStyle=orthogonalEdgeStyle;rounded=0;orthogonalLoop=1;jettySize=auto;html=1;exitX=0.5;exitY=1;exitDx=0;exitDy=0;entryX=0.477;entryY=0.077;entryDx=0;entryDy=0;entryPerimeter=0;" edge="1" parent="1" source="2QPjshsw38jV6scYMA-w-110" target="2QPjshsw38jV6scYMA-w-117">
          <mxGeometry relative="1" as="geometry" />
        </mxCell>
        <mxCell id="2QPjshsw38jV6scYMA-w-110" value="area expressed?" style="rhombus;whiteSpace=wrap;html=1;" vertex="1" parent="1">
          <mxGeometry x="159.93" y="260" width="90" height="90" as="geometry" />
        </mxCell>
        <mxCell id="2QPjshsw38jV6scYMA-w-112" value="yes" style="text;html=1;strokeColor=none;fillColor=none;align=center;verticalAlign=middle;whiteSpace=wrap;rounded=0;" vertex="1" parent="1">
          <mxGeometry x="244.93" y="280" width="60" height="30" as="geometry" />
        </mxCell>
        <mxCell id="2QPjshsw38jV6scYMA-w-115" value="no" style="text;html=1;align=center;verticalAlign=middle;resizable=0;points=[];autosize=1;strokeColor=none;fillColor=none;" vertex="1" parent="1">
          <mxGeometry x="99.93" y="350" width="40" height="30" as="geometry" />
        </mxCell>
        <mxCell id="2QPjshsw38jV6scYMA-w-120" style="edgeStyle=orthogonalEdgeStyle;rounded=0;orthogonalLoop=1;jettySize=auto;html=1;exitX=0.5;exitY=1;exitDx=0;exitDy=0;entryX=0.5;entryY=0;entryDx=0;entryDy=0;" edge="1" parent="1" source="2QPjshsw38jV6scYMA-w-117" target="2QPjshsw38jV6scYMA-w-32">
          <mxGeometry relative="1" as="geometry" />
        </mxCell>
        <mxCell id="2QPjshsw38jV6scYMA-w-124" style="edgeStyle=orthogonalEdgeStyle;rounded=0;orthogonalLoop=1;jettySize=auto;html=1;exitX=1;exitY=0.5;exitDx=0;exitDy=0;entryX=1;entryY=0.5;entryDx=0;entryDy=0;" edge="1" parent="1" source="2QPjshsw38jV6scYMA-w-117" target="2QPjshsw38jV6scYMA-w-106">
          <mxGeometry relative="1" as="geometry">
            <Array as="points">
              <mxPoint x="365" y="620" />
              <mxPoint x="690" y="620" />
              <mxPoint x="690" y="875" />
            </Array>
          </mxGeometry>
        </mxCell>
        <mxCell id="2QPjshsw38jV6scYMA-w-117" value="food expressed?" style="rhombus;whiteSpace=wrap;html=1;" vertex="1" parent="1">
          <mxGeometry x="274.93" y="479" width="90" height="90" as="geometry" />
        </mxCell>
        <mxCell id="2QPjshsw38jV6scYMA-w-119" value="yes" style="text;html=1;strokeColor=none;fillColor=none;align=center;verticalAlign=middle;whiteSpace=wrap;rounded=0;" vertex="1" parent="1">
          <mxGeometry x="234.93" y="390" width="60" height="30" as="geometry" />
        </mxCell>
        <mxCell id="2QPjshsw38jV6scYMA-w-122" value="yes" style="text;html=1;strokeColor=none;fillColor=none;align=center;verticalAlign=middle;whiteSpace=wrap;rounded=0;" vertex="1" parent="1">
          <mxGeometry x="539.93" y="590" width="60" height="30" as="geometry" />
        </mxCell>
        <mxCell id="2QPjshsw38jV6scYMA-w-123" value="no" style="text;html=1;align=center;verticalAlign=middle;resizable=0;points=[];autosize=1;strokeColor=none;fillColor=none;" vertex="1" parent="1">
          <mxGeometry x="324.93" y="630" width="40" height="30" as="geometry" />
        </mxCell>
        <mxCell id="2QPjshsw38jV6scYMA-w-127" value="no" style="text;html=1;align=center;verticalAlign=middle;resizable=0;points=[];autosize=1;strokeColor=none;fillColor=none;" vertex="1" parent="1">
          <mxGeometry x="60" y="840" width="40" height="30" as="geometry" />
        </mxCell>
        <mxCell id="2QPjshsw38jV6scYMA-w-128" value="yes" style="text;html=1;strokeColor=none;fillColor=none;align=center;verticalAlign=middle;whiteSpace=wrap;rounded=0;" vertex="1" parent="1">
          <mxGeometry x="305.00000000000006" y="1010" width="60" height="30" as="geometry" />
        </mxCell>
        <mxCell id="2QPjshsw38jV6scYMA-w-141" style="edgeStyle=orthogonalEdgeStyle;rounded=0;orthogonalLoop=1;jettySize=auto;html=1;exitX=0;exitY=0.5;exitDx=0;exitDy=0;entryX=0;entryY=0.5;entryDx=0;entryDy=0;" edge="1" parent="1" source="2QPjshsw38jV6scYMA-w-106" target="2QPjshsw38jV6scYMA-w-143">
          <mxGeometry relative="1" as="geometry">
            <mxPoint x="105" y="1110" as="sourcePoint" />
            <Array as="points">
              <mxPoint x="-50" y="875" />
              <mxPoint x="-50" y="180" />
            </Array>
          </mxGeometry>
        </mxCell>
        <mxCell id="2QPjshsw38jV6scYMA-w-144" style="edgeStyle=orthogonalEdgeStyle;rounded=0;orthogonalLoop=1;jettySize=auto;html=1;exitX=0.5;exitY=1;exitDx=0;exitDy=0;" edge="1" parent="1" source="2QPjshsw38jV6scYMA-w-143" target="2QPjshsw38jV6scYMA-w-5">
          <mxGeometry relative="1" as="geometry" />
        </mxCell>
        <mxCell id="2QPjshsw38jV6scYMA-w-148" style="edgeStyle=orthogonalEdgeStyle;rounded=0;orthogonalLoop=1;jettySize=auto;html=1;exitX=1;exitY=0.5;exitDx=0;exitDy=0;entryX=0;entryY=0.5;entryDx=0;entryDy=0;" edge="1" parent="1" source="2QPjshsw38jV6scYMA-w-143" target="2QPjshsw38jV6scYMA-w-147">
          <mxGeometry relative="1" as="geometry" />
        </mxCell>
        <mxCell id="2QPjshsw38jV6scYMA-w-143" value="is confirm?" style="rhombus;whiteSpace=wrap;html=1;" vertex="1" parent="1">
          <mxGeometry x="345" y="130" width="110" height="100" as="geometry" />
        </mxCell>
        <mxCell id="2QPjshsw38jV6scYMA-w-145" value="no" style="text;html=1;strokeColor=none;fillColor=none;align=center;verticalAlign=middle;whiteSpace=wrap;rounded=0;" vertex="1" parent="1">
          <mxGeometry x="354" y="260" width="60" height="30" as="geometry" />
        </mxCell>
        <mxCell id="2QPjshsw38jV6scYMA-w-153" style="edgeStyle=orthogonalEdgeStyle;rounded=0;orthogonalLoop=1;jettySize=auto;html=1;exitX=1;exitY=0.5;exitDx=0;exitDy=0;entryX=0;entryY=0.5;entryDx=0;entryDy=0;" edge="1" parent="1" source="2QPjshsw38jV6scYMA-w-147" target="2QPjshsw38jV6scYMA-w-155">
          <mxGeometry relative="1" as="geometry">
            <mxPoint x="800" y="180.66666666666652" as="targetPoint" />
          </mxGeometry>
        </mxCell>
        <mxCell id="2QPjshsw38jV6scYMA-w-147" value="13. ask confirmation" style="rounded=1;whiteSpace=wrap;html=1;" vertex="1" parent="1">
          <mxGeometry x="550" y="150" width="120" height="60" as="geometry" />
        </mxCell>
        <mxCell id="2QPjshsw38jV6scYMA-w-149" value="yes" style="text;html=1;strokeColor=none;fillColor=none;align=center;verticalAlign=middle;whiteSpace=wrap;rounded=0;" vertex="1" parent="1">
          <mxGeometry x="469.93" y="150" width="60" height="30" as="geometry" />
        </mxCell>
        <mxCell id="2QPjshsw38jV6scYMA-w-158" style="edgeStyle=orthogonalEdgeStyle;rounded=0;orthogonalLoop=1;jettySize=auto;html=1;exitX=0.5;exitY=1;exitDx=0;exitDy=0;entryX=1;entryY=0.5;entryDx=0;entryDy=0;" edge="1" parent="1" source="2QPjshsw38jV6scYMA-w-155" target="2QPjshsw38jV6scYMA-w-42">
          <mxGeometry relative="1" as="geometry" />
        </mxCell>
        <mxCell id="9eL_mAdRsdy_KYhM3XVc-4" style="edgeStyle=orthogonalEdgeStyle;rounded=0;orthogonalLoop=1;jettySize=auto;html=1;exitX=0;exitY=1;exitDx=0;exitDy=0;entryX=1;entryY=0;entryDx=0;entryDy=0;" edge="1" parent="1" source="2QPjshsw38jV6scYMA-w-155" target="2QPjshsw38jV6scYMA-w-5">
          <mxGeometry relative="1" as="geometry">
            <Array as="points">
              <mxPoint x="823" y="260" />
              <mxPoint x="427" y="260" />
            </Array>
          </mxGeometry>
        </mxCell>
        <mxCell id="2QPjshsw38jV6scYMA-w-155" value="is affirm?" style="rhombus;whiteSpace=wrap;html=1;" vertex="1" parent="1">
          <mxGeometry x="800" y="135" width="90" height="90" as="geometry" />
        </mxCell>
        <mxCell id="9eL_mAdRsdy_KYhM3XVc-5" value="no" style="text;html=1;strokeColor=none;fillColor=none;align=center;verticalAlign=middle;whiteSpace=wrap;rounded=0;" vertex="1" parent="1">
          <mxGeometry x="580" y="230" width="60" height="30" as="geometry" />
        </mxCell>
      </root>
    </mxGraphModel>
  </diagram>
</mxfile>
